<svg aria-hidden="true" style="position: absolute; width: 0; height: 0; overflow: hidden;" version="1.1" xmlns="http://www.w3.org/2000/svg" xmlns:xlink="http://www.w3.org/1999/xlink">
    <defs>
        <symbol id="logo" viewBox="0 0 127 32"><path d="M12.16 0.576c-7.36 2.24-11.776 8.064-11.776 15.424 0 6.016 3.072 11.264 8.128 13.888 2.624 1.344 3.008 0.384 0.576-1.472-1.728-1.408-2.048-2.048-2.048-4.416 0-1.664-0.384-3.008-0.96-3.52-1.152-0.96-1.28-3.456-0.128-4.352 0.448-0.384 0.896-1.664 0.96-2.816 0.32-4.224 4.864-8.192 9.408-8.192s9.088 3.968 9.408 8.192c0.064 1.152 0.512 2.432 0.96 2.816 1.152 0.896 1.024 3.392-0.128 4.352-0.576 0.512-0.96 1.856-0.96 3.52 0 2.368-0.32 3.008-2.048 4.416-2.688 2.112-1.92 2.88 1.088 1.024 4.224-2.624 7.36-8.32 7.36-13.376 0-10.112-10.496-18.304-19.84-15.488z"></path><path d="M12.992 8c-1.152 0.512-2.112 1.152-2.112 1.536 0 0.704 3.456 1.984 5.44 1.984s5.44-1.28 5.44-1.984c0-0.768-3.968-2.496-5.568-2.496-0.64 0.064-2.112 0.448-3.2 0.96z"></path><path d="M45.952 11.328c-0.96 0.256-1.152 1.088-1.152 5.696v5.376h4.544l-0.192-5.568c-0.192-5.824-0.448-6.272-3.2-5.504z"></path><path d="M53.44 11.648c-2.112 1.152-2.88 2.56-2.88 5.312 0 3.776 2.048 5.568 5.824 5.312 2.56-0.192 2.816-0.384 3.008-1.984s0.064-1.728-1.92-1.6c-2.048 0.192-2.112 0.064-2.112-2.048s0.128-2.24 1.984-2.048c1.536 0.128 2.112-0.128 2.368-1.088 0.128-0.64 0-1.536-0.384-1.92-0.896-0.896-4.224-0.896-5.888 0.064z"></path><path d="M61.056 11.712c-0.192 0.512-0.256 3.008-0.128 5.632l0.192 4.736h4.16c3.84 0 4.16-0.128 4.352-1.472 0.192-1.216-0.064-1.408-2.048-1.408-1.28 0-2.304-0.32-2.304-0.64 0-0.384 0.896-0.64 1.92-0.64 1.472 0 1.92-0.256 1.92-1.28s-0.448-1.28-1.92-1.28c-1.024 0-1.92-0.32-1.92-0.64 0-0.384 0.832-0.64 1.856-0.64 1.792 0 3.008-1.408 2.24-2.624-0.576-0.96-7.936-0.704-8.32 0.256z"></path><path d="M73.92 11.52c-2.112 0.832-2.944 2.304-3.008 4.992-0.064 4.608 1.792 6.208 6.592 5.76 1.856-0.128 2.176-0.448 2.176-1.792 0-1.408-0.256-1.6-2.048-1.408-1.536 0.128-2.112-0.064-2.432-1.088-0.576-1.984 0.64-3.584 2.688-3.584 1.216 0 1.856-0.384 1.984-1.216 0.448-2.048-2.816-3.008-5.952-1.664z"></path><path d="M81.792 11.264c-0.32 0.256-0.512 2.88-0.512 5.824v5.376l2.048-0.192c1.6-0.128 2.176-0.576 2.496-1.792l0.384-1.6 0.512 1.728c0.384 1.472 0.832 1.792 2.496 1.792 2.752 0 3.072-0.448 1.92-2.688-0.704-1.408-0.832-2.112-0.32-2.624 0.832-0.832 0.896-3.648 0.128-4.864-0.64-1.024-8.32-1.856-9.152-0.96zM87.040 14.72c0 0.704-0.256 1.28-0.64 1.28-0.32 0-0.64-0.576-0.64-1.28s0.32-1.28 0.64-1.28c0.384 0 0.64 0.576 0.64 1.28z"></path><path d="M93.248 11.328c-0.256 0.192-0.448 2.816-0.448 5.76v5.312h4.16c4.032 0 4.16-0.064 4.16-1.6 0-1.344-0.32-1.6-1.92-1.6-1.024 0-1.92-0.32-1.92-0.64 0-0.384 0.704-0.64 1.6-0.64 1.152 0 1.6-0.32 1.6-1.28s-0.448-1.28-1.6-1.28c-0.896 0-1.6-0.32-1.6-0.64 0-0.384 0.896-0.64 1.92-0.64 1.6 0 1.92-0.256 1.92-1.6 0-1.536-0.192-1.6-3.712-1.6-2.048 0-3.968 0.192-4.16 0.448z"></path><path d="M106.176 11.264c-1.152 0.32-4.096 8.832-3.52 10.24 0.512 1.28 3.392 1.152 4.16-0.192 0.576-1.088 0.64-1.088 1.792 0 1.472 1.28 4.672 1.472 4.672 0.256 0-0.384-0.64-2.944-1.472-5.568-1.28-4.224-1.664-4.8-3.008-4.928-0.896 0-2.048 0.064-2.624 0.192zM107.968 17.088c-0.192 0.64-0.32 0.256-0.32-0.768 0-1.088 0.128-1.536 0.32-1.152 0.128 0.448 0.128 1.344 0 1.92z"></path><path d="M115.392 11.328c-0.576 0.192-0.832 1.984-0.832 5.696v5.376h1.856c1.6 0 1.92-0.32 2.176-1.792 0.256-1.664 0.256-1.664 0.768-0.32 0.256 0.832 0.896 1.472 1.344 1.472 0.512 0 1.216-0.64 1.536-1.472 0.512-1.344 0.576-1.344 0.576 0.384 0.064 1.6 0.256 1.792 2.048 1.6l1.984-0.192 0.064-5.312c0.128-4.928 0.064-5.312-1.28-5.632-2.048-0.512-3.776 0.704-4.352 3.072l-0.448 2.112-0.704-2.24c-0.896-3.008-2.24-3.776-4.736-2.752z"></path><path d="M9.344 11.968c-0.192 0.256-0.384 1.088-0.384 1.92 0 1.472 0.064 1.472 7.36 1.472s7.36 0 7.36-1.472c0-2.176-0.576-2.432-2.624-1.408-2.304 1.216-7.168 1.216-9.472 0-1.024-0.512-1.984-0.704-2.24-0.512z"></path><path d="M7.488 17.664c-1.024 1.088 0.704 1.536 5.696 1.536h5.376v2.24c0 1.216 0.32 2.24 0.64 2.24 0.384 0 0.64-0.96 0.64-2.176 0-2.112 0.128-2.24 2.56-2.432 1.408-0.128 2.56-0.512 2.56-0.832 0-0.704-16.768-1.28-17.472-0.576z"></path><path d="M8.96 23.296c0 3.52 1.216 4.224 7.36 4.224s7.36-0.704 7.36-4.224c0-1.536-0.32-2.176-0.96-2.176-0.576 0-0.96 0.576-0.96 1.536 0 3.584-4.864 3.904-5.568 0.384-0.32-1.856-0.512-1.92-3.776-1.92h-3.456v2.176z"></path><path d="M12.928 30.528c0.384 2.048 6.912 1.856 6.912-0.128 0-0.704-0.832-0.96-3.584-0.96-3.008 0-3.52 0.192-3.328 1.088z"></path></symbol>
        <symbol id="arrow_right" viewBox="0 0 26 32"><path d="M17.297 15.994c0 0.555-0.208 1.11-0.622 1.534l-13.048 13.32c-0.83 0.847-2.176 0.847-3.005 0s-0.83-2.22 0-3.068l11.545-11.786-11.545-11.786c-0.83-0.847-0.83-2.221 0-3.068s2.175-0.848 3.005 0l13.048 13.32c0.415 0.424 0.622 0.979 0.622 1.534z"></path></symbol>
        <symbol id="burger" viewBox="0 0 46 32"><path d="M0 0h80v4.103h-80v-4.103z"></path><path d="M0 12.309h80v4.103h-80v-4.103z"></path><path d="M0 24.615h80v4.103h-80v-4.103z"></path></symbol>
        <symbol id="close" viewBox="0 0 32 32"><path d="M7.659 7.659l-0.459 0.461 7.88 7.88-7.88 7.88 0.459 0.461 0.461 0.459 7.88-7.88 7.88 7.88 0.461-0.459 0.459-0.461-7.88-7.88 7.88-7.88-0.459-0.461-0.461-0.459-7.88 7.88-7.88-7.88-0.461 0.459z"></path></symbol>
        <symbol id="ellipse" viewBox="0 0 32 32"><path d="M32 16c0 8.837-7.163 16-16 16s-16-7.163-16-16c0-8.837 7.163-16 16-16s16 7.163 16 16z"></path></symbol>
        <symbol id="facebook" viewBox="0 0 33 32"><path d="M20.916 15.981h-2.61v9.618h-3.955v-9.618h-1.881v-3.38h1.881v-2.188c0-1.564 0.739-4.014 3.99-4.014l2.929 0.012v3.281h-2.125c-0.349 0-0.839 0.175-0.839 0.921v1.989h2.955l-0.346 3.377z"></path></symbol>
        <symbol id="github" viewBox="0 0 32 32"><path d="M16 6.588c-5.169 0-9.412 4.242-9.412 9.412 0 4.411 3.095 8.419 7.206 9.412v-3.114c-0.407 0.089-0.782 0.092-1.197-0.030-0.556-0.164-1.008-0.535-1.344-1.1-0.214-0.361-0.593-0.752-0.988-0.723l-0.097-1.099c0.855-0.073 1.595 0.521 2.034 1.258 0.195 0.328 0.419 0.52 0.708 0.605 0.278 0.082 0.577 0.043 0.926-0.081 0.088-0.698 0.407-0.959 0.649-1.326v-0.001c-2.451-0.366-3.428-1.666-3.816-2.693-0.514-1.363-0.238-3.066 0.671-4.142 0.018-0.021 0.050-0.076 0.037-0.114-0.417-1.258 0.091-2.3 0.11-2.41 0.481 0.142 0.559-0.143 2.088 0.786l0.264 0.159c0.111 0.066 0.076 0.028 0.186 0.020 0.639-0.174 1.312-0.269 1.975-0.278 0.668 0.009 1.337 0.104 2.002 0.285l0.086 0.009c-0.008-0.001 0.023-0.005 0.075-0.036 1.911-1.157 1.842-0.779 2.354-0.946 0.018 0.111 0.519 1.169 0.107 2.411-0.056 0.171 1.657 1.739 0.708 4.256-0.388 1.027-1.365 2.328-3.816 2.693v0.001c0.314 0.479 0.692 0.734 0.69 1.722v3.887c4.111-0.993 7.206-5 7.206-9.412 0-5.169-4.242-9.412-9.412-9.412v0z"></path></symbol>
        <symbol id="house" viewBox="0 0 35 32"><path d="M32.64 15.401c0.599-0.65 0.541-1.646-0.129-2.225l-14.772-12.75c-0.671-0.578-1.745-0.566-2.402 0.027l-14.822 13.403c-0.656 0.594-0.689 1.589-0.071 2.222l0.372 0.382c0.617 0.633 1.613 0.708 2.224 0.168l1.108-0.979v14.326c0 0.879 0.722 1.591 1.612 1.591h5.778c0.89 0 1.612-0.712 1.612-1.591v-10.023h7.37v10.023c-0.013 0.878 0.624 1.59 1.515 1.59h6.123c0.89 0 1.613-0.711 1.613-1.59v-14.124c0 0 0.306 0.264 0.683 0.592s1.168 0.065 1.767-0.586l0.42-0.455z"></path></symbol>
        <symbol id="telegram" viewBox="0 0 33 32"><path d="M13.102 18.375l-0.318 4.169c0.454 0 0.651-0.182 0.887-0.401l2.13-1.9 4.414 3.017c0.81 0.421 1.38 0.199 1.598-0.695l2.898-12.673c0.257-1.117-0.433-1.554-1.222-1.28l-17.032 6.086c-1.162 0.421-1.145 1.026-0.198 1.3l4.355 1.264 10.115-5.907c0.476-0.294 0.909-0.131 0.553 0.163l-8.182 6.857z"></path></symbol>
        <symbol id="arrow_right_round" viewBox="0 0 32 32"><path d="M19.414 27.414l10-10c0.781-0.781 0.781-2.047 0-2.828l-10-10c-0.781-0.781-2.047-0.781-2.828 0s-0.781 2.047 0 2.828l6.586 6.586h-19.172c-1.105 0-2 0.895-2 2s0.895 2 2 2h19.172l-6.586 6.586c-0.39 0.39-0.586 0.902-0.586 1.414s0.195 1.024 0.586 1.414c0.781 0.781 2.047 0.781 2.828 0z"></path></symbol>
        <symbol id="quotes" viewBox="0 0 43 32"><path d="M32.014 0c1.929 0 3.75.52 5.464 1.561s3.107 2.537 4.179 4.488C42.686 8 43.2 10.298 43.2 12.943s-.643 5.225-1.929 7.74c-.429.911-1.2 2.081-2.314 3.512a63.368 63.368 0 01-3.214 3.707L31.693 32 28.8 27.187a22.03 22.03 0 005.336-4.683c1.543-1.821 2.314-3.491 2.314-5.008 0-.78-.171-1.409-.514-1.886a8.359 8.359 0 01-5.014 1.626c-1.329 0-2.593-.412-3.793-1.236a8.555 8.555 0 01-2.957-3.122c-.771-1.258-1.157-2.558-1.157-3.902 0-1.518.45-2.97 1.35-4.358a10.222 10.222 0 013.407-3.382C29.143.412 30.558 0 32.015 0zM8.936 0c1.929 0 3.75.52 5.464 1.561s3.107 2.537 4.179 4.488c1.029 1.951 1.543 4.249 1.543 6.894 0 1.864-.236 3.534-.707 5.008-.471 1.518-1.286 3.1-2.443 4.748-1.114 1.561-2.164 2.862-3.15 3.902-.986 1.084-2.7 2.884-5.143 5.398l-2.893-4.813a22.03 22.03 0 005.336-4.683c1.543-1.821 2.314-3.491 2.314-5.008 0-.78-.171-1.409-.514-1.886a8.359 8.359 0 01-5.014 1.626c-1.329 0-2.593-.412-3.793-1.236a8.555 8.555 0 01-2.957-3.122C.387 11.619.001 10.319.001 8.975c0-1.518.429-2.97 1.286-4.358S3.28 2.102 4.694 1.235C6.065.411 7.48-.001 8.937-.001z"/></symbol>
        <symbol id="ice-cream" viewBox="0 0 32 32"><path d="M23.804 10.508c0.164-0.518 0.197-1.029 0.095-1.531-0.25-1.235-1.128-1.972-2.286-2.5-0.020-0.011-0.041-0.020-0.063-0.028-0.597-0.266-1.264-0.479-1.958-0.676 0.086-0.265 0.133-0.548 0.133-0.841 0-1.062-0.61-1.984-1.498-2.435 0.866-1.3 1.867-1.459 2.303-1.459 0.635 0 1.034 0.136 1.265 0.258 0.18 0.095 0.397 0.080 0.559-0.043 0.302-0.229 0.263-0.693-0.072-0.87-0.372-0.198-0.937-0.382-1.753-0.382-0.994 0-1.927 0.457-2.696 1.323-0.178 0.2-0.411 0.496-0.646 0.886-0.064-0.005-0.129-0.008-0.194-0.008-1.063 0-1.985 0.611-2.436 1.499-0.165-0.182-0.306-0.398-0.406-0.632-0.058-0.135-0.171-0.239-0.31-0.287s-0.292-0.033-0.42 0.039c-3.127 1.754-3.499 4.454-3.515 5.515-0.022 0.009-0.044 0.017-0.065 0.026-1.177 0.505-1.856 1.465-1.963 2.777-0.040 0.488 0.009 0.936 0.067 1.259-1.085 0.406-1.763 1.225-1.854 2.276-0.097 1.135 0.528 2.228 1.548 2.766-0.009 0.070-0.015 0.141-0.015 0.214 0 0.896 0.729 1.625 1.625 1.625h0.021c0.221 0.253 0.345 0.58 0.345 0.919 0 3.283 2.536 5.985 5.752 6.249v1.715c0 1.544-1.256 2.8-2.8 2.8-0.286 0-0.519 0.232-0.519 0.519s0.232 0.519 0.519 0.519h6.637c0.286 0 0.519-0.232 0.519-0.519s-0.232-0.519-0.519-0.519c-1.544 0-2.8-1.256-2.8-2.8v-1.715c3.216-0.265 5.752-2.966 5.752-6.249 0-0.34 0.124-0.666 0.345-0.919h0.021c0.896 0 1.625-0.729 1.625-1.625 0-0.142-0.019-0.28-0.053-0.412 0.367-0.267 1.74-1.374 1.816-3.036 0.058-1.275-0.652-2.518-2.11-3.697zM16.995 3.238c0.934 0 1.694 0.76 1.694 1.694s-0.76 1.694-1.694 1.694c-0.934 0-1.694-0.76-1.694-1.694s0.76-1.694 1.694-1.694zM10.655 20.198c0-0.319-0.063-0.631-0.181-0.919h2.131v1.141c0 1.556 0.307 3.028 0.865 4.143 0.066 0.132 0.135 0.258 0.207 0.378-1.783-0.835-3.022-2.646-3.022-4.742zM16.588 30.963h-1.398c0.274-0.256 0.509-0.552 0.699-0.878 0.19 0.326 0.425 0.621 0.699 0.878zM15.889 25.432c-0.524 0-1.068-0.486-1.492-1.333-0.487-0.974-0.755-2.281-0.755-3.679v-1.141h4.494v1.141c0 2.954-1.184 5.013-2.247 5.013zM21.123 20.198c0 2.096-1.239 3.907-3.022 4.742 0.072-0.119 0.141-0.245 0.207-0.378 0.558-1.115 0.865-2.587 0.865-4.143v-1.141h2.131c-0.118 0.289-0.181 0.601-0.181 0.919zM22.526 18.241h-13.275c-0.324 0-0.588-0.264-0.588-0.588s0.264-0.588 0.588-0.588h13.275c0.324 0 0.588 0.264 0.588 0.588s-0.264 0.588-0.588 0.588zM24.878 14.152c-0.049 1.148-1.048 1.991-1.353 2.222-0.276-0.216-0.623-0.345-0.999-0.345h-5.152c0.981-0.489 2.154-1.136 3.237-1.896 0.234-0.164 0.291-0.488 0.127-0.722s-0.488-0.291-0.722-0.127c-2.103 1.475-4.647 2.541-5.149 2.745h-5.615c-0.449 0-0.856 0.183-1.15 0.479-0.634-0.351-1.035-1.048-0.975-1.746 0.066-0.774 0.676-1.332 1.674-1.532 0.845-0.169 3.080-0.64 5.573-1.356 0.275-0.079 0.434-0.366 0.355-0.642s-0.366-0.434-0.642-0.355c-2.163 0.622-4.127 1.055-5.134 1.264-0.123-0.741-0.157-2.202 1.299-2.826 0.592-0.254 1.805-0.475 3.088-0.708l0.431-0.079c0.282-0.052 0.468-0.322 0.416-0.604s-0.322-0.468-0.604-0.416l-0.43 0.078c-0.818 0.149-1.57 0.286-2.194 0.434 0.081-1.022 0.542-2.723 2.522-4.023 0.216 0.327 0.485 0.61 0.787 0.824-0.001 0.036-0.003 0.073-0.003 0.11 0 1.506 1.225 2.731 2.731 2.731 0.83 0 1.575-0.373 2.076-0.959 0.707 0.197 1.371 0.397 1.943 0.64 0.046 0.101 0.035 0.177 0.013 0.245-0.107 0.335-0.784 1.26-4.752 2.607-0.271 0.092-0.416 0.386-0.324 0.658 0.073 0.216 0.275 0.352 0.491 0.352 0.055 0 0.111-0.009 0.167-0.028 2.1-0.713 4.945-1.827 5.407-3.274 0.001-0.002 0.001-0.004 0.002-0.005 0.448 0.335 0.756 0.747 0.865 1.285 0.158 0.783-0.203 1.653-1.073 2.586-0.195 0.209-0.184 0.537 0.025 0.733 0.1 0.093 0.227 0.139 0.354 0.139 0.139 0 0.277-0.055 0.379-0.165 0.312-0.335 0.572-0.668 0.779-0.999 1.054 0.903 1.569 1.802 1.532 2.675z"></path></symbol>
    </defs>
</svg>
