<svg aria-hidden="true" style="position: absolute; width: 0; height: 0; overflow: hidden;" version="1.1" xmlns="http://www.w3.org/2000/svg" xmlns:xlink="http://www.w3.org/1999/xlink">
    <defs>
        <symbol id="logo" viewBox="0 0 127 32"><path d="M12.16 0.576c-7.36 2.24-11.776 8.064-11.776 15.424 0 6.016 3.072 11.264 8.128 13.888 2.624 1.344 3.008 0.384 0.576-1.472-1.728-1.408-2.048-2.048-2.048-4.416 0-1.664-0.384-3.008-0.96-3.52-1.152-0.96-1.28-3.456-0.128-4.352 0.448-0.384 0.896-1.664 0.96-2.816 0.32-4.224 4.864-8.192 9.408-8.192s9.088 3.968 9.408 8.192c0.064 1.152 0.512 2.432 0.96 2.816 1.152 0.896 1.024 3.392-0.128 4.352-0.576 0.512-0.96 1.856-0.96 3.52 0 2.368-0.32 3.008-2.048 4.416-2.688 2.112-1.92 2.88 1.088 1.024 4.224-2.624 7.36-8.32 7.36-13.376 0-10.112-10.496-18.304-19.84-15.488z"></path><path d="M12.992 8c-1.152 0.512-2.112 1.152-2.112 1.536 0 0.704 3.456 1.984 5.44 1.984s5.44-1.28 5.44-1.984c0-0.768-3.968-2.496-5.568-2.496-0.64 0.064-2.112 0.448-3.2 0.96z"></path><path d="M45.952 11.328c-0.96 0.256-1.152 1.088-1.152 5.696v5.376h4.544l-0.192-5.568c-0.192-5.824-0.448-6.272-3.2-5.504z"></path><path d="M53.44 11.648c-2.112 1.152-2.88 2.56-2.88 5.312 0 3.776 2.048 5.568 5.824 5.312 2.56-0.192 2.816-0.384 3.008-1.984s0.064-1.728-1.92-1.6c-2.048 0.192-2.112 0.064-2.112-2.048s0.128-2.24 1.984-2.048c1.536 0.128 2.112-0.128 2.368-1.088 0.128-0.64 0-1.536-0.384-1.92-0.896-0.896-4.224-0.896-5.888 0.064z"></path><path d="M61.056 11.712c-0.192 0.512-0.256 3.008-0.128 5.632l0.192 4.736h4.16c3.84 0 4.16-0.128 4.352-1.472 0.192-1.216-0.064-1.408-2.048-1.408-1.28 0-2.304-0.32-2.304-0.64 0-0.384 0.896-0.64 1.92-0.64 1.472 0 1.92-0.256 1.92-1.28s-0.448-1.28-1.92-1.28c-1.024 0-1.92-0.32-1.92-0.64 0-0.384 0.832-0.64 1.856-0.64 1.792 0 3.008-1.408 2.24-2.624-0.576-0.96-7.936-0.704-8.32 0.256z"></path><path d="M73.92 11.52c-2.112 0.832-2.944 2.304-3.008 4.992-0.064 4.608 1.792 6.208 6.592 5.76 1.856-0.128 2.176-0.448 2.176-1.792 0-1.408-0.256-1.6-2.048-1.408-1.536 0.128-2.112-0.064-2.432-1.088-0.576-1.984 0.64-3.584 2.688-3.584 1.216 0 1.856-0.384 1.984-1.216 0.448-2.048-2.816-3.008-5.952-1.664z"></path><path d="M81.792 11.264c-0.32 0.256-0.512 2.88-0.512 5.824v5.376l2.048-0.192c1.6-0.128 2.176-0.576 2.496-1.792l0.384-1.6 0.512 1.728c0.384 1.472 0.832 1.792 2.496 1.792 2.752 0 3.072-0.448 1.92-2.688-0.704-1.408-0.832-2.112-0.32-2.624 0.832-0.832 0.896-3.648 0.128-4.864-0.64-1.024-8.32-1.856-9.152-0.96zM87.040 14.72c0 0.704-0.256 1.28-0.64 1.28-0.32 0-0.64-0.576-0.64-1.28s0.32-1.28 0.64-1.28c0.384 0 0.64 0.576 0.64 1.28z"></path><path d="M93.248 11.328c-0.256 0.192-0.448 2.816-0.448 5.76v5.312h4.16c4.032 0 4.16-0.064 4.16-1.6 0-1.344-0.32-1.6-1.92-1.6-1.024 0-1.92-0.32-1.92-0.64 0-0.384 0.704-0.64 1.6-0.64 1.152 0 1.6-0.32 1.6-1.28s-0.448-1.28-1.6-1.28c-0.896 0-1.6-0.32-1.6-0.64 0-0.384 0.896-0.64 1.92-0.64 1.6 0 1.92-0.256 1.92-1.6 0-1.536-0.192-1.6-3.712-1.6-2.048 0-3.968 0.192-4.16 0.448z"></path><path d="M106.176 11.264c-1.152 0.32-4.096 8.832-3.52 10.24 0.512 1.28 3.392 1.152 4.16-0.192 0.576-1.088 0.64-1.088 1.792 0 1.472 1.28 4.672 1.472 4.672 0.256 0-0.384-0.64-2.944-1.472-5.568-1.28-4.224-1.664-4.8-3.008-4.928-0.896 0-2.048 0.064-2.624 0.192zM107.968 17.088c-0.192 0.64-0.32 0.256-0.32-0.768 0-1.088 0.128-1.536 0.32-1.152 0.128 0.448 0.128 1.344 0 1.92z"></path><path d="M115.392 11.328c-0.576 0.192-0.832 1.984-0.832 5.696v5.376h1.856c1.6 0 1.92-0.32 2.176-1.792 0.256-1.664 0.256-1.664 0.768-0.32 0.256 0.832 0.896 1.472 1.344 1.472 0.512 0 1.216-0.64 1.536-1.472 0.512-1.344 0.576-1.344 0.576 0.384 0.064 1.6 0.256 1.792 2.048 1.6l1.984-0.192 0.064-5.312c0.128-4.928 0.064-5.312-1.28-5.632-2.048-0.512-3.776 0.704-4.352 3.072l-0.448 2.112-0.704-2.24c-0.896-3.008-2.24-3.776-4.736-2.752z"></path><path d="M9.344 11.968c-0.192 0.256-0.384 1.088-0.384 1.92 0 1.472 0.064 1.472 7.36 1.472s7.36 0 7.36-1.472c0-2.176-0.576-2.432-2.624-1.408-2.304 1.216-7.168 1.216-9.472 0-1.024-0.512-1.984-0.704-2.24-0.512z"></path><path d="M7.488 17.664c-1.024 1.088 0.704 1.536 5.696 1.536h5.376v2.24c0 1.216 0.32 2.24 0.64 2.24 0.384 0 0.64-0.96 0.64-2.176 0-2.112 0.128-2.24 2.56-2.432 1.408-0.128 2.56-0.512 2.56-0.832 0-0.704-16.768-1.28-17.472-0.576z"></path><path d="M8.96 23.296c0 3.52 1.216 4.224 7.36 4.224s7.36-0.704 7.36-4.224c0-1.536-0.32-2.176-0.96-2.176-0.576 0-0.96 0.576-0.96 1.536 0 3.584-4.864 3.904-5.568 0.384-0.32-1.856-0.512-1.92-3.776-1.92h-3.456v2.176z"></path><path d="M12.928 30.528c0.384 2.048 6.912 1.856 6.912-0.128 0-0.704-0.832-0.96-3.584-0.96-3.008 0-3.52 0.192-3.328 1.088z"></path></symbol>
        <symbol id="arrow_right" viewBox="0 0 26 32"><path d="M17.297 15.994c0 0.555-0.208 1.11-0.622 1.534l-13.048 13.32c-0.83 0.847-2.176 0.847-3.005 0s-0.83-2.22 0-3.068l11.545-11.786-11.545-11.786c-0.83-0.847-0.83-2.221 0-3.068s2.175-0.848 3.005 0l13.048 13.32c0.415 0.424 0.622 0.979 0.622 1.534z"></path></symbol>
        <symbol id="burger" viewBox="0 0 46 32"><path d="M0 0h80v4.103h-80v-4.103z"></path><path d="M0 12.309h80v4.103h-80v-4.103z"></path><path d="M0 24.615h80v4.103h-80v-4.103z"></path></symbol>
        <symbol id="close" viewBox="0 0 32 32"><path d="M7.659 7.659l-0.459 0.461 7.88 7.88-7.88 7.88 0.459 0.461 0.461 0.459 7.88-7.88 7.88 7.88 0.461-0.459 0.459-0.461-7.88-7.88 7.88-7.88-0.459-0.461-0.461-0.459-7.88 7.88-7.88-7.88-0.461 0.459z"></path></symbol>
        <symbol id="ellipse" viewBox="0 0 32 32"><path d="M32 16c0 8.837-7.163 16-16 16s-16-7.163-16-16c0-8.837 7.163-16 16-16s16 7.163 16 16z"></path></symbol>
        <symbol id="facebook" viewBox="0 0 33 32"><path d="M20.916 15.981h-2.61v9.618h-3.955v-9.618h-1.881v-3.38h1.881v-2.188c0-1.564 0.739-4.014 3.99-4.014l2.929 0.012v3.281h-2.125c-0.349 0-0.839 0.175-0.839 0.921v1.989h2.955l-0.346 3.377z"></path></symbol>
        <symbol id="github" viewBox="0 0 32 32"><path d="M16 6.588c-5.169 0-9.412 4.242-9.412 9.412 0 4.411 3.095 8.419 7.206 9.412v-3.114c-0.407 0.089-0.782 0.092-1.197-0.030-0.556-0.164-1.008-0.535-1.344-1.1-0.214-0.361-0.593-0.752-0.988-0.723l-0.097-1.099c0.855-0.073 1.595 0.521 2.034 1.258 0.195 0.328 0.419 0.52 0.708 0.605 0.278 0.082 0.577 0.043 0.926-0.081 0.088-0.698 0.407-0.959 0.649-1.326v-0.001c-2.451-0.366-3.428-1.666-3.816-2.693-0.514-1.363-0.238-3.066 0.671-4.142 0.018-0.021 0.050-0.076 0.037-0.114-0.417-1.258 0.091-2.3 0.11-2.41 0.481 0.142 0.559-0.143 2.088 0.786l0.264 0.159c0.111 0.066 0.076 0.028 0.186 0.020 0.639-0.174 1.312-0.269 1.975-0.278 0.668 0.009 1.337 0.104 2.002 0.285l0.086 0.009c-0.008-0.001 0.023-0.005 0.075-0.036 1.911-1.157 1.842-0.779 2.354-0.946 0.018 0.111 0.519 1.169 0.107 2.411-0.056 0.171 1.657 1.739 0.708 4.256-0.388 1.027-1.365 2.328-3.816 2.693v0.001c0.314 0.479 0.692 0.734 0.69 1.722v3.887c4.111-0.993 7.206-5 7.206-9.412 0-5.169-4.242-9.412-9.412-9.412v0z"></path></symbol>
        <symbol id="house" viewBox="0 0 35 32"><path d="M32.64 15.401c0.599-0.65 0.541-1.646-0.129-2.225l-14.772-12.75c-0.671-0.578-1.745-0.566-2.402 0.027l-14.822 13.403c-0.656 0.594-0.689 1.589-0.071 2.222l0.372 0.382c0.617 0.633 1.613 0.708 2.224 0.168l1.108-0.979v14.326c0 0.879 0.722 1.591 1.612 1.591h5.778c0.89 0 1.612-0.712 1.612-1.591v-10.023h7.37v10.023c-0.013 0.878 0.624 1.59 1.515 1.59h6.123c0.89 0 1.613-0.711 1.613-1.59v-14.124c0 0 0.306 0.264 0.683 0.592s1.168 0.065 1.767-0.586l0.42-0.455z"></path></symbol>
        <symbol id="telegram" viewBox="0 0 33 32"><path d="M13.102 18.375l-0.318 4.169c0.454 0 0.651-0.182 0.887-0.401l2.13-1.9 4.414 3.017c0.81 0.421 1.38 0.199 1.598-0.695l2.898-12.673c0.257-1.117-0.433-1.554-1.222-1.28l-17.032 6.086c-1.162 0.421-1.145 1.026-0.198 1.3l4.355 1.264 10.115-5.907c0.476-0.294 0.909-0.131 0.553 0.163l-8.182 6.857z"></path></symbol>
        <symbol id="arrow_right_round" viewBox="0 0 32 32"><path d="M19.414 27.414l10-10c0.781-0.781 0.781-2.047 0-2.828l-10-10c-0.781-0.781-2.047-0.781-2.828 0s-0.781 2.047 0 2.828l6.586 6.586h-19.172c-1.105 0-2 0.895-2 2s0.895 2 2 2h19.172l-6.586 6.586c-0.39 0.39-0.586 0.902-0.586 1.414s0.195 1.024 0.586 1.414c0.781 0.781 2.047 0.781 2.828 0z"></path></symbol>
        <symbol id="quotes" viewBox="0 0 43 32"><path d="M32.014 0c1.929 0 3.75.52 5.464 1.561s3.107 2.537 4.179 4.488C42.686 8 43.2 10.298 43.2 12.943s-.643 5.225-1.929 7.74c-.429.911-1.2 2.081-2.314 3.512a63.368 63.368 0 01-3.214 3.707L31.693 32 28.8 27.187a22.03 22.03 0 005.336-4.683c1.543-1.821 2.314-3.491 2.314-5.008 0-.78-.171-1.409-.514-1.886a8.359 8.359 0 01-5.014 1.626c-1.329 0-2.593-.412-3.793-1.236a8.555 8.555 0 01-2.957-3.122c-.771-1.258-1.157-2.558-1.157-3.902 0-1.518.45-2.97 1.35-4.358a10.222 10.222 0 013.407-3.382C29.143.412 30.558 0 32.015 0zM8.936 0c1.929 0 3.75.52 5.464 1.561s3.107 2.537 4.179 4.488c1.029 1.951 1.543 4.249 1.543 6.894 0 1.864-.236 3.534-.707 5.008-.471 1.518-1.286 3.1-2.443 4.748-1.114 1.561-2.164 2.862-3.15 3.902-.986 1.084-2.7 2.884-5.143 5.398l-2.893-4.813a22.03 22.03 0 005.336-4.683c1.543-1.821 2.314-3.491 2.314-5.008 0-.78-.171-1.409-.514-1.886a8.359 8.359 0 01-5.014 1.626c-1.329 0-2.593-.412-3.793-1.236a8.555 8.555 0 01-2.957-3.122C.387 11.619.001 10.319.001 8.975c0-1.518.429-2.97 1.286-4.358S3.28 2.102 4.694 1.235C6.065.411 7.48-.001 8.937-.001z"/></symbol>
    </defs>
</svg>
